#!OML:ASF F:\VICON\USERDATA\INSTALL\Justin_Nancy\Justin_Nancy.ASF
:FULLY-SPECIFIED
:DEGREES
147
root -8.61966 17.5133 -10.3965 0.394104 -1.83839 3.89677
lowerback 5.67558 -2.01482 -4.91236
upperback 0.130756 -2.94261 2.11689
thorax -2.68828 -1.3938 5.18369
lowerneck -17.7547 -2.14508 -9.1155
upperneck 20.4692 -0.906503 2.08948
head 9.47264 -0.906526 2.11041
rclavicle -6.46547e-014 1.03368e-014
rhumerus -37.9893 -25.1462 -70.0973
rradius 22.8708
rwrist 15.8899
rhand -13.2269 12.571
rfingers 7.12502
rthumb 12.8744 -17.0119
lclavicle -6.46547e-014 1.03368e-014
lhumerus -23.8735 11.9571 82.7477
lradius 29.9544
lwrist -7.8429
lhand -16.8071 28.3051
lfingers 7.12502
lthumb 9.42144 58.0745
rfemur -22.7748 3.10661 20.5737
rtibia 23.3596
rfoot -0.343037 -2.55983
rtoes 10.1016
lfemur 4.45948 -0.560618 -27.6341
ltibia 33.6773
lfoot -0.535728 -11.1322
ltoes -16.4356
148
root -8.63598 17.5208 -10.2359 0.269966 -2.01331 3.74303
lowerback 5.48594 -1.89299 -4.74754
upperback 0.290309 -2.76011 2.09396
thorax -2.4479 -1.31612 5.04043
lowerneck -17.8289 -2.15891 -8.95812
upperneck 20.3715 -0.966792 2.10705
head 9.45354 -0.917163 2.08174
rclavicle 3.17559e-014 -1.27222e-014
rhumerus -37.8933 -25.6341 -70.0097
rradius 22.7552
rwrist 16.0941
rhand -13.0747 12.4959
rfingers 7.12502
rthumb 13.0212 -17.0777
lclavicle 3.17559e-014 -1.27222e-014
lhumerus -23.7004 12.0585 82.7752
lradius 29.5817
lwrist -7.83199
lhand -16.7265 27.9188
lfingers 7.12502
lthumb 9.49923 57.6847
rfemur -22.3191 3.48407 20.8337
rtibia 23.8703
rfoot -0.757527 -2.90826
rtoes 11.9527
lfemur 3.70544 -0.206464 -27.1246
ltibia 35.5201
lfoot 2.06083 -12.118
ltoes -15.1249
149
root -8.65124 17.5308 -10.0889 0.210422 -2.03378 3.85837
lowerback 5.57005 -1.83065 -4.96024
upperback 0.230775 -2.69445 2.10634
thorax -2.55451 -1.27611 5.17537
lowerneck -17.8225 -2.14613 -9.08698
upperneck 20.518 -0.950107 2.26645
head 9.50397 -0.905144 2.16238
rclavicle 1.44119e-014 3.97569e-015
rhumerus -37.9784 -25.633 -69.88
rradius 22.7457
rwrist 16.1369
rhand -12.8795 12.7206
rfingers 7.12502
rthumb 13.2093 -16.8409
lclavicle 1.44119e-014 3.97569e-015
lhumerus -24.0182 12.4988 82.8078
lradius 29.36
lwrist -8.15158
lhand -16.5075 26.444
lfingers 7.12502
lthumb 9.7105 56.2002
rfemur -21.937 3.54419 20.8261
rtibia 24.3001
rfoot -1.18543 -2.70797
rtoes 11.5319
lfemur 2.74666 -0.0255641 -26.9118
ltibia 37.2948
lfoot 5.15832 -12.7031
ltoes -12.9926
150
root -8.66855 17.5453 -9.94129 0.117737 -1.92728 3.91181
lowerback 5.76846 -1.77226 -5.12664
upperback 0.139399 -2.63686 2.13587
thorax -2.75915 -1.23617 5.30866
lowerneck -18.0236 -2.23758 -9.1851
upperneck 20.9506 -1.03533 2.30787
head 9.70048 -0.958409 2.18558
rclavicle -1.02871e-014 -1.43125e-014
rhumerus -38.1914 -25.2733 -69.9064
rradius 23.0043
rwrist 15.7654
rhand -12.6438 12.647
rfingers 7.12502
rthumb 13.4365 -16.8996
lclavicle -1.02871e-014 -1.43125e-014
lhumerus -24.4878 12.6674 82.9354
lradius 29.4799
lwrist -8.27193
lhand -16.0108 27.2982
lfingers 7.12502
lthumb 10.1898 57.0314
rfemur -21.3887 3.34117 20.9156
rtibia 24.4969
rfoot -1.4882 -2.32391
rtoes 11.2105
lfemur 1.72248 0.0675649 -26.6292
ltibia 39.1381
lfoot 7.80622 -13.3918
ltoes -13.7603
151
root -8.68669 17.5641 -9.78843 -0.10895 -1.82832 3.60368
lowerback 5.85363 -1.73893 -4.86456
upperback 0.212527 -2.57654 2.18202
thorax -2.74789 -1.21127 5.20587
lowerneck -18.001 -2.23075 -9.09925
upperneck 20.9943 -1.07314 2.39161
head 9.71282 -0.960402 2.19645
rclavicle 4.09496e-014 2.62396e-014
rhumerus -38.2527 -24.8664 -70.2141
rradius 23.3029
rwrist 15.4047
rhand -12.7159 12.0347
rfingers 7.12502
rthumb 13.367 -17.5165
lclavicle 4.09496e-014 2.62396e-014
lhumerus -24.7595 12.4313 83.0329
lradius 29.6509
lwrist -7.90584
lhand -15.5868 29.5388
lfingers 7.12502
lthumb 10.5988 59.2515
rfemur -20.508 3.43381 21.3557
rtibia 24.4572
rfoot -1.75164 -2.54113
rtoes 12.352
lfemur 0.815433 0.121751 -25.9653
ltibia 41.0968
lfoot 9.99705 -14.3448
ltoes -14.4508
152
root -8.70849 17.5893 -9.63543 -0.227683 -1.72911 3.03416
lowerback 5.85314 -1.7273 -4.36093
upperback 0.282306 -2.52288 2.31447
thorax -2.69729 -1.19329 5.05309
lowerneck -17.8931 -2.24363 -9.05616
upperneck 20.8658 -1.14193 2.50156
head 9.65092 -0.973167 2.21768
rclavicle 1.23246e-014 -1.59028e-015
rhumerus -38.1498 -24.5075 -70.5032
rradius 23.4035
rwrist 15.1644
rhand -12.8005 12.0929
rfingers 7.12502
rthumb 13.2855 -17.4637
lclavicle 1.23246e-014 -1.59028e-015
lhumerus -24.8725 12.324 83.1139
lradius 29.5286
lwrist -7.69917
lhand -17.8205 20.0165
lfingers 7.12502
lthumb 8.44359 49.8277
rfemur -19.5788 3.62058 22.0971
rtibia 24.1691
rfoot -2.01351 -2.93877
rtoes 11.4426
lfemur -0.265054 0.24357 -24.9741
ltibia 43.1438
lfoot 12.3133 -15.5795
ltoes -12.4252
153
root -8.72518 17.6117 -9.48738 -0.207132 -1.7428 2.56388
lowerback 5.81879 -1.66074 -3.88377
upperback 0.282801 -2.39849 2.40776
thorax -2.70757 -1.13625 4.86972
lowerneck -17.9843 -2.35843 -9.06229
upperneck 20.9962 -1.30139 2.54834
head 9.72438 -1.04494 2.21462
rclavicle -2.41523e-014 2.22639e-014
rhumerus -37.9448 -24.5506 -70.5478
rradius 23.1049
rwrist 15.3916
rhand -12.9206 12.6474
rfingers 7.12502
rthumb 13.1697 -16.9167
lclavicle -2.41523e-014 2.22639e-014
lhumerus -25.0889 12.2133 83.2257
lradius 29.5118
lwrist -7.68119
lhand -16.4376 23.8736
lfingers 7.12502
lthumb 9.77799 53.6266
rfemur -18.6956 3.73394 22.7228
rtibia 23.5861
rfoot -2.14858 -3.08099
rtoes 10.7058
lfemur -1.62527 0.427052 -24.1548
ltibia 45.2832
lfoot 14.522 -16.7867
ltoes -9.87195
154
root -8.74088 17.6304 -9.34376 -0.328704 -1.78423 2.08477
lowerback 5.98019 -1.63113 -3.51706
upperback 0.208711 -2.33328 2.60108
thorax -2.88859 -1.10103 4.86808
lowerneck -17.6958 -2.33021 -9.18852
upperneck 21.0284 -1.26671 2.58882
head 9.68197 -1.03661 2.25537
rclavicle 9.93923e-016 -2.70347e-014
rhumerus -37.8333 -23.9546 -70.7057
rradius 22.9961
rwrist 15.4612
rhand -13.1648 12.5814
rfingers 7.12502
rthumb 12.9343 -16.9977
lclavicle 9.93923e-016 -2.70347e-014
lhumerus -25.6035 12.1508 83.3203
lradius 29.3674
lwrist -7.92479
lhand -17.2342 22.1153
lfingers 7.12502
lthumb 9.00937 51.9029
rfemur -17.6386 3.95312 23.3289
rtibia 22.8988
rfoot -2.27844 -3.23129
rtoes 11.016
lfemur -2.86847 0.566423 -23.3517
ltibia 47.4282
lfoot 16.2082 -18.004
ltoes -8.69607
155
root -8.76059 17.6543 -9.20576 -0.423015 -1.75785 1.37088
lowerback 6.08116 -1.59936 -2.86823
upperback 0.18885 -2.24222 2.78909
thorax -2.99281 -1.06036 4.69443
lowerneck -17.2189 -2.27543 -9.25944
upperneck 20.8047 -1.25758 2.73637
head 9.51505 -1.01784 2.31879
rclavicle 1.25234e-014 1.19271e-014
rhumerus -37.7483 -23.3339 -71.0411
rradius 23.2525
rwrist 15.4074
rhand -12.7358 12.2268
rfingers 7.12502
rthumb 13.3479 -17.3257
lclavicle 1.25234e-014 1.19271e-014
lhumerus -25.8649 11.8288 83.4443
lradius 29.1103
lwrist -8.02503
lhand -17.9344 20.8853
lfingers 7.12502
lthumb 8.33364 50.7009
rfemur -16.5827 4.41705 24.1815
rtibia 22.1978
rfoot -2.48833 -3.79371
rtoes 11.55
lfemur -4.19509 0.766074 -22.2396
ltibia 49.5517
lfoot 17.8747 -18.7828
ltoes -6.57477
156
root -8.77563 17.6718 -9.07066 -0.421996 -1.71788 1.01834
lowerback 5.98929 -1.52346 -2.52675
upperback 0.335822 -2.11577 2.83141
thorax -2.81253 -1.00812 4.52754
lowerneck -17.5026 -2.41052 -9.23386
upperneck 20.86 -1.44854 2.84753
head 9.5993 -1.09144 2.32812
rclavicle -2.06239e-014 1.66979e-014
rhumerus -37.1097 -22.701 -71.8325
rradius 23.7075
rwrist 15.1943
rhand -12.2049 10.3502
rfingers 7.12502
rthumb 13.8596 -19.168
lclavicle -2.06239e-014 1.66979e-014
lhumerus -25.6275 11.3972 83.6986
lradius 29.2151
lwrist -7.39638
lhand -16.8527 24.109
lfingers 7.12502
lthumb 9.37745 53.8804
rfemur -15.6794 4.39836 24.6631
rtibia 21.4662
rfoot -2.58069 -3.8504
rtoes 11.7717
lfemur -5.55533 0.897341 -21.6033
ltibia 51.6069
lfoot 19.1151 -18.73
ltoes -5.10903
157
root -8.78565 17.688 -8.93138 -0.47429 -1.69511 0.849714
lowerback 6.00128 -1.41626 -2.36637
upperback 0.431403 -1.96172 2.87048
thorax -2.73913 -0.936045 4.46361
lowerneck -18.0612 -2.56467 -9.30442
upperneck 21.212 -1.6118 2.96519
head 9.83988 -1.16417 2.3614
rclavicle -7.20594e-015 1.35174e-014
rhumerus -36.6583 -22.0356 -72.3969
rradius 24.1673
rwrist 14.7245
rhand -11.9717 9.11976
rfingers 7.12502
rthumb 14.0843 -20.383
lclavicle -7.20594e-015 1.35174e-014
lhumerus -25.4735 11.2432 83.9603
lradius 29.0308
lwrist -7.54897
lhand -15.9589 27.7067
lfingers 7.12502
lthumb 10.2398 57.4375
rfemur -14.704 4.14945 24.9598
rtibia 20.7092
rfoot -2.53892 -3.68948
rtoes 10.8469
lfemur -6.85874 1.05772 -21.2251
ltibia 53.5969
lfoot 18.5156 -18.3867
ltoes -6.1794
158
root -8.7974 17.7062 -8.79495 -0.544473 -1.72209 0.584724
lowerback 6.19843 -1.31441 -2.09536
upperback 0.33655 -1.80753 2.87947
thorax -2.97029 -0.856144 4.31639
lowerneck -17.9207 -2.51302 -9.17383
upperneck 21.2569 -1.60677 3.02229
head 9.82735 -1.14631 2.36185
rclavicle -8.19987e-015 -4.13472e-014
rhumerus -36.6737 -21.7653 -72.5575
rradius 24.2305
rwrist 14.6665
rhand -12.2234 9.89856
rfingers 7.12502
rthumb 13.8417 -19.6209
lclavicle -8.19987e-015 -4.13472e-014
lhumerus -25.7902 11.0134 83.9416
lradius 28.3801
lwrist -8.65044
lhand -16.8397 27.681
lfingers 7.12502
lthumb 9.39006 57.4519
rfemur -13.8557 3.90123 25.3706
rtibia 20.2184
rfoot -2.7631 -3.50394
rtoes 10.2682
lfemur -8.2413 1.2049 -20.755
ltibia 55.4985
lfoot 16.8006 -17.6388
ltoes -7.64646
